<mxfile host="app.diagrams.net" modified="2024-04-25T05:23:53.896Z" agent="Mozilla/5.0 (Windows NT 10.0; Win64; x64) AppleWebKit/537.36 (KHTML, like Gecko) Chrome/124.0.0.0 Safari/537.36 Edg/124.0.0.0" etag="CSiLd2JgqDlwNIcDIFji" version="24.2.3" type="github">
  <diagram id="R2lEEEUBdFMjLlhIrx00" name="Page-1">
    <mxGraphModel dx="1896" dy="1246" grid="1" gridSize="10" guides="1" tooltips="1" connect="1" arrows="1" fold="1" page="1" pageScale="1" pageWidth="850" pageHeight="1100" math="0" shadow="0" extFonts="Permanent Marker^https://fonts.googleapis.com/css?family=Permanent+Marker">
      <root>
        <mxCell id="0" />
        <mxCell id="1" parent="0" />
        <mxCell id="C-vyLk0tnHw3VtMMgP7b-23" value="Movie" style="shape=table;startSize=30;container=1;collapsible=1;childLayout=tableLayout;fixedRows=1;rowLines=0;fontStyle=1;align=center;resizeLast=1;" parent="1" vertex="1">
          <mxGeometry x="920" y="20" width="540" height="160" as="geometry" />
        </mxCell>
        <mxCell id="C-vyLk0tnHw3VtMMgP7b-24" value="" style="shape=partialRectangle;collapsible=0;dropTarget=0;pointerEvents=0;fillColor=none;points=[[0,0.5],[1,0.5]];portConstraint=eastwest;top=0;left=0;right=0;bottom=1;" parent="C-vyLk0tnHw3VtMMgP7b-23" vertex="1">
          <mxGeometry y="30" width="540" height="20" as="geometry" />
        </mxCell>
        <mxCell id="C-vyLk0tnHw3VtMMgP7b-25" value="PK" style="shape=partialRectangle;overflow=hidden;connectable=0;fillColor=none;top=0;left=0;bottom=0;right=0;fontStyle=1;" parent="C-vyLk0tnHw3VtMMgP7b-24" vertex="1">
          <mxGeometry width="30" height="20" as="geometry">
            <mxRectangle width="30" height="20" as="alternateBounds" />
          </mxGeometry>
        </mxCell>
        <mxCell id="C-vyLk0tnHw3VtMMgP7b-26" value="id: PK, INT, NOT NULL" style="shape=partialRectangle;overflow=hidden;connectable=0;fillColor=none;top=0;left=0;bottom=0;right=0;align=left;spacingLeft=6;fontStyle=5;" parent="C-vyLk0tnHw3VtMMgP7b-24" vertex="1">
          <mxGeometry x="30" width="510" height="20" as="geometry">
            <mxRectangle width="510" height="20" as="alternateBounds" />
          </mxGeometry>
        </mxCell>
        <mxCell id="C-vyLk0tnHw3VtMMgP7b-27" value="" style="shape=partialRectangle;collapsible=0;dropTarget=0;pointerEvents=0;fillColor=none;points=[[0,0.5],[1,0.5]];portConstraint=eastwest;top=0;left=0;right=0;bottom=0;" parent="C-vyLk0tnHw3VtMMgP7b-23" vertex="1">
          <mxGeometry y="50" width="540" height="100" as="geometry" />
        </mxCell>
        <mxCell id="C-vyLk0tnHw3VtMMgP7b-28" value="" style="shape=partialRectangle;overflow=hidden;connectable=0;fillColor=none;top=0;left=0;bottom=0;right=0;" parent="C-vyLk0tnHw3VtMMgP7b-27" vertex="1">
          <mxGeometry width="30" height="100" as="geometry">
            <mxRectangle width="30" height="100" as="alternateBounds" />
          </mxGeometry>
        </mxCell>
        <mxCell id="C-vyLk0tnHw3VtMMgP7b-29" value="title = models.CharField(null=False, max_length=255, blank=False)&#xa;    description = models.CharField(null=False, max_length=2000, blank=True, default=&#39;&#39;)&#xa;    duration = models.PositiveIntegerField(null=False)&#xa;    producer = models.CharField(null=False, max_length=255)&#xa;    created_at = models.DateTimeField(auto_now=True, null=False)" style="shape=partialRectangle;overflow=hidden;connectable=0;fillColor=none;top=0;left=0;bottom=0;right=0;align=left;spacingLeft=6;" parent="C-vyLk0tnHw3VtMMgP7b-27" vertex="1">
          <mxGeometry x="30" width="510" height="100" as="geometry">
            <mxRectangle width="510" height="100" as="alternateBounds" />
          </mxGeometry>
        </mxCell>
        <mxCell id="ubpIzuCUj8s6CP66qa1f-1" value="CartItem" style="shape=table;startSize=30;container=1;collapsible=1;childLayout=tableLayout;fixedRows=1;rowLines=0;fontStyle=1;align=center;resizeLast=1;" vertex="1" parent="1">
          <mxGeometry x="140" y="340" width="540" height="170" as="geometry" />
        </mxCell>
        <mxCell id="ubpIzuCUj8s6CP66qa1f-2" value="" style="shape=partialRectangle;collapsible=0;dropTarget=0;pointerEvents=0;fillColor=none;points=[[0,0.5],[1,0.5]];portConstraint=eastwest;top=0;left=0;right=0;bottom=1;" vertex="1" parent="ubpIzuCUj8s6CP66qa1f-1">
          <mxGeometry y="30" width="540" height="30" as="geometry" />
        </mxCell>
        <mxCell id="ubpIzuCUj8s6CP66qa1f-3" value="PK" style="shape=partialRectangle;overflow=hidden;connectable=0;fillColor=none;top=0;left=0;bottom=0;right=0;fontStyle=1;" vertex="1" parent="ubpIzuCUj8s6CP66qa1f-2">
          <mxGeometry width="30" height="30" as="geometry">
            <mxRectangle width="30" height="30" as="alternateBounds" />
          </mxGeometry>
        </mxCell>
        <mxCell id="ubpIzuCUj8s6CP66qa1f-4" value="id: PK, INT, NOT NULL" style="shape=partialRectangle;overflow=hidden;connectable=0;fillColor=none;top=0;left=0;bottom=0;right=0;align=left;spacingLeft=6;fontStyle=5;" vertex="1" parent="ubpIzuCUj8s6CP66qa1f-2">
          <mxGeometry x="30" width="510" height="30" as="geometry">
            <mxRectangle width="510" height="30" as="alternateBounds" />
          </mxGeometry>
        </mxCell>
        <mxCell id="ubpIzuCUj8s6CP66qa1f-5" value="" style="shape=partialRectangle;collapsible=0;dropTarget=0;pointerEvents=0;fillColor=none;points=[[0,0.5],[1,0.5]];portConstraint=eastwest;top=0;left=0;right=0;bottom=0;" vertex="1" parent="ubpIzuCUj8s6CP66qa1f-1">
          <mxGeometry y="60" width="540" height="100" as="geometry" />
        </mxCell>
        <mxCell id="ubpIzuCUj8s6CP66qa1f-6" value="" style="shape=partialRectangle;overflow=hidden;connectable=0;fillColor=none;top=0;left=0;bottom=0;right=0;" vertex="1" parent="ubpIzuCUj8s6CP66qa1f-5">
          <mxGeometry width="30" height="100" as="geometry">
            <mxRectangle width="30" height="100" as="alternateBounds" />
          </mxGeometry>
        </mxCell>
        <mxCell id="ubpIzuCUj8s6CP66qa1f-7" value="owner = models.ForeignKey(User, null=False, on_delete=models.CASCADE, related_name=&#39;movies_cart_items&#39;)&#xa;    movie = models.ForeignKey(Movie, null=False, on_delete=models.CASCADE)&#xa;    amount = models.IntegerField(null=False, default=1)" style="shape=partialRectangle;overflow=hidden;connectable=0;fillColor=none;top=0;left=0;bottom=0;right=0;align=left;spacingLeft=6;" vertex="1" parent="ubpIzuCUj8s6CP66qa1f-5">
          <mxGeometry x="30" width="510" height="100" as="geometry">
            <mxRectangle width="510" height="100" as="alternateBounds" />
          </mxGeometry>
        </mxCell>
        <mxCell id="ubpIzuCUj8s6CP66qa1f-8" value="Profile" style="shape=table;startSize=20;container=1;collapsible=1;childLayout=tableLayout;fixedRows=1;rowLines=0;fontStyle=1;align=center;resizeLast=1;" vertex="1" parent="1">
          <mxGeometry x="810" y="650" width="540" height="190" as="geometry" />
        </mxCell>
        <mxCell id="ubpIzuCUj8s6CP66qa1f-9" value="" style="shape=partialRectangle;collapsible=0;dropTarget=0;pointerEvents=0;fillColor=none;points=[[0,0.5],[1,0.5]];portConstraint=eastwest;top=0;left=0;right=0;bottom=1;" vertex="1" parent="ubpIzuCUj8s6CP66qa1f-8">
          <mxGeometry y="20" width="540" height="30" as="geometry" />
        </mxCell>
        <mxCell id="ubpIzuCUj8s6CP66qa1f-10" value="PK" style="shape=partialRectangle;overflow=hidden;connectable=0;fillColor=none;top=0;left=0;bottom=0;right=0;fontStyle=1;" vertex="1" parent="ubpIzuCUj8s6CP66qa1f-9">
          <mxGeometry width="30" height="30" as="geometry">
            <mxRectangle width="30" height="30" as="alternateBounds" />
          </mxGeometry>
        </mxCell>
        <mxCell id="ubpIzuCUj8s6CP66qa1f-11" value="id: PK, INT, NOT NULL" style="shape=partialRectangle;overflow=hidden;connectable=0;fillColor=none;top=0;left=0;bottom=0;right=0;align=left;spacingLeft=6;fontStyle=5;" vertex="1" parent="ubpIzuCUj8s6CP66qa1f-9">
          <mxGeometry x="30" width="510" height="30" as="geometry">
            <mxRectangle width="510" height="30" as="alternateBounds" />
          </mxGeometry>
        </mxCell>
        <mxCell id="ubpIzuCUj8s6CP66qa1f-12" value="" style="shape=partialRectangle;collapsible=0;dropTarget=0;pointerEvents=0;fillColor=none;points=[[0,0.5],[1,0.5]];portConstraint=eastwest;top=0;left=0;right=0;bottom=0;" vertex="1" parent="ubpIzuCUj8s6CP66qa1f-8">
          <mxGeometry y="50" width="540" height="100" as="geometry" />
        </mxCell>
        <mxCell id="ubpIzuCUj8s6CP66qa1f-13" value="" style="shape=partialRectangle;overflow=hidden;connectable=0;fillColor=none;top=0;left=0;bottom=0;right=0;" vertex="1" parent="ubpIzuCUj8s6CP66qa1f-12">
          <mxGeometry width="30" height="100" as="geometry">
            <mxRectangle width="30" height="100" as="alternateBounds" />
          </mxGeometry>
        </mxCell>
        <mxCell id="ubpIzuCUj8s6CP66qa1f-14" value="avatar = models.ImageField(upload_to=&#39;user/&#39;, null=True, max_length=2000)&#xa;    bio = models.TextField(max_length=2000, null=False, blank=True)&#xa;    owner = models.OneToOneField(User, on_delete=models.CASCADE, null=False)&#xa;    resume = models.FileField(upload_to=&#39;user/&#39;, null=True, max_length=2000)" style="shape=partialRectangle;overflow=hidden;connectable=0;fillColor=none;top=0;left=0;bottom=0;right=0;align=left;spacingLeft=6;" vertex="1" parent="ubpIzuCUj8s6CP66qa1f-12">
          <mxGeometry x="30" width="510" height="100" as="geometry">
            <mxRectangle width="510" height="100" as="alternateBounds" />
          </mxGeometry>
        </mxCell>
        <mxCell id="ubpIzuCUj8s6CP66qa1f-16" value="ResetPassword" style="shape=table;startSize=30;container=1;collapsible=1;childLayout=tableLayout;fixedRows=1;rowLines=0;fontStyle=1;align=center;resizeLast=1;" vertex="1" parent="1">
          <mxGeometry x="1390" y="260" width="540" height="170" as="geometry" />
        </mxCell>
        <mxCell id="ubpIzuCUj8s6CP66qa1f-17" value="" style="shape=partialRectangle;collapsible=0;dropTarget=0;pointerEvents=0;fillColor=none;points=[[0,0.5],[1,0.5]];portConstraint=eastwest;top=0;left=0;right=0;bottom=1;" vertex="1" parent="ubpIzuCUj8s6CP66qa1f-16">
          <mxGeometry y="30" width="540" height="30" as="geometry" />
        </mxCell>
        <mxCell id="ubpIzuCUj8s6CP66qa1f-18" value="PK" style="shape=partialRectangle;overflow=hidden;connectable=0;fillColor=none;top=0;left=0;bottom=0;right=0;fontStyle=1;" vertex="1" parent="ubpIzuCUj8s6CP66qa1f-17">
          <mxGeometry width="30" height="30" as="geometry">
            <mxRectangle width="30" height="30" as="alternateBounds" />
          </mxGeometry>
        </mxCell>
        <mxCell id="ubpIzuCUj8s6CP66qa1f-19" value="id: PK, INT, NOT NULL" style="shape=partialRectangle;overflow=hidden;connectable=0;fillColor=none;top=0;left=0;bottom=0;right=0;align=left;spacingLeft=6;fontStyle=5;" vertex="1" parent="ubpIzuCUj8s6CP66qa1f-17">
          <mxGeometry x="30" width="510" height="30" as="geometry">
            <mxRectangle width="510" height="30" as="alternateBounds" />
          </mxGeometry>
        </mxCell>
        <mxCell id="ubpIzuCUj8s6CP66qa1f-20" value="" style="shape=partialRectangle;collapsible=0;dropTarget=0;pointerEvents=0;fillColor=none;points=[[0,0.5],[1,0.5]];portConstraint=eastwest;top=0;left=0;right=0;bottom=0;" vertex="1" parent="ubpIzuCUj8s6CP66qa1f-16">
          <mxGeometry y="60" width="540" height="100" as="geometry" />
        </mxCell>
        <mxCell id="ubpIzuCUj8s6CP66qa1f-21" value="" style="shape=partialRectangle;overflow=hidden;connectable=0;fillColor=none;top=0;left=0;bottom=0;right=0;" vertex="1" parent="ubpIzuCUj8s6CP66qa1f-20">
          <mxGeometry width="30" height="100" as="geometry">
            <mxRectangle width="30" height="100" as="alternateBounds" />
          </mxGeometry>
        </mxCell>
        <mxCell id="ubpIzuCUj8s6CP66qa1f-22" value="email = models.EmailField(null=False, blank=False, max_length=255)&#xa;    token = models.CharField(null=False, blank=False, max_length=255)&#xa;    created_at = models.DateTimeField(null=False, auto_now_add=True)" style="shape=partialRectangle;overflow=hidden;connectable=0;fillColor=none;top=0;left=0;bottom=0;right=0;align=left;spacingLeft=6;" vertex="1" parent="ubpIzuCUj8s6CP66qa1f-20">
          <mxGeometry x="30" width="510" height="100" as="geometry">
            <mxRectangle width="510" height="100" as="alternateBounds" />
          </mxGeometry>
        </mxCell>
        <mxCell id="ubpIzuCUj8s6CP66qa1f-25" value="" style="edgeStyle=entityRelationEdgeStyle;fontSize=12;html=1;endArrow=ERmandOne;startArrow=ERmandOne;rounded=0;startSize=8;endSize=8;curved=1;exitX=0.999;exitY=0.37;exitDx=0;exitDy=0;exitPerimeter=0;" edge="1" parent="1" source="ubpIzuCUj8s6CP66qa1f-12" target="ubpIzuCUj8s6CP66qa1f-17">
          <mxGeometry width="100" height="100" relative="1" as="geometry">
            <mxPoint x="820" y="600" as="sourcePoint" />
            <mxPoint x="920" y="500" as="targetPoint" />
            <Array as="points">
              <mxPoint x="1310" y="450" />
            </Array>
          </mxGeometry>
        </mxCell>
        <mxCell id="ubpIzuCUj8s6CP66qa1f-26" value="" style="edgeStyle=entityRelationEdgeStyle;fontSize=12;html=1;endArrow=ERmany;startArrow=ERmany;rounded=0;startSize=8;endSize=8;curved=1;entryX=1;entryY=0.5;entryDx=0;entryDy=0;exitX=0;exitY=0.5;exitDx=0;exitDy=0;" edge="1" parent="1" source="ubpIzuCUj8s6CP66qa1f-12" target="ubpIzuCUj8s6CP66qa1f-5">
          <mxGeometry width="100" height="100" relative="1" as="geometry">
            <mxPoint x="820" y="600" as="sourcePoint" />
            <mxPoint x="920" y="500" as="targetPoint" />
            <Array as="points">
              <mxPoint x="800" y="730" />
            </Array>
          </mxGeometry>
        </mxCell>
        <mxCell id="ubpIzuCUj8s6CP66qa1f-27" value="" style="edgeStyle=entityRelationEdgeStyle;fontSize=12;html=1;endArrow=ERmany;startArrow=ERmany;rounded=0;startSize=8;endSize=8;curved=1;entryX=-0.001;entryY=0.357;entryDx=0;entryDy=0;exitX=1;exitY=0.5;exitDx=0;exitDy=0;entryPerimeter=0;" edge="1" parent="1" source="ubpIzuCUj8s6CP66qa1f-2" target="C-vyLk0tnHw3VtMMgP7b-27">
          <mxGeometry width="100" height="100" relative="1" as="geometry">
            <mxPoint x="1010" y="575" as="sourcePoint" />
            <mxPoint x="880" y="275" as="targetPoint" />
            <Array as="points">
              <mxPoint x="1000" y="555" />
            </Array>
          </mxGeometry>
        </mxCell>
        <mxCell id="ubpIzuCUj8s6CP66qa1f-28" value="" style="edgeStyle=entityRelationEdgeStyle;fontSize=12;html=1;endArrow=ERmany;startArrow=ERmany;rounded=0;startSize=8;endSize=8;curved=1;entryX=0;entryY=0.5;entryDx=0;entryDy=0;exitX=0;exitY=0.5;exitDx=0;exitDy=0;" edge="1" parent="1" source="ubpIzuCUj8s6CP66qa1f-9" target="C-vyLk0tnHw3VtMMgP7b-24">
          <mxGeometry width="100" height="100" relative="1" as="geometry">
            <mxPoint x="690" y="395" as="sourcePoint" />
            <mxPoint x="799" y="126" as="targetPoint" />
            <Array as="points">
              <mxPoint x="1010" y="565" />
            </Array>
          </mxGeometry>
        </mxCell>
      </root>
    </mxGraphModel>
  </diagram>
</mxfile>
